<svg xmlns="http://www.w3.org/2000/svg" width="88.512" height="19.441" viewBox="0 0 88.512 19.441">
  <path id="logo-white" d="M19.758-13.652a2.529,2.529,0,0,1-.973,2.027,3.233,3.233,0,0,1-2.156.773,3.262,3.262,0,0,1-2.156-.773,2.541,2.541,0,0,1-.961-2.027,3.241,3.241,0,0,1,.117-.82h-.258a6.619,6.619,0,0,0-5.062,2.555A7.906,7.906,0,0,0,6.141-6.6,4.151,4.151,0,0,0,7.934-2.953,6.973,6.973,0,0,0,12-1.875l2.18-6.094h4.371Q17.59-5.191,15.645.34q-.926,2.613-4.43,2.613-.41,0-.937-.023L11.355,0A15.961,15.961,0,0,1,4.711-1.184a5.41,5.41,0,0,1-3.492-5.2,7.885,7.885,0,0,1,1.23-4.055,11.75,11.75,0,0,1,4.969-4.523,14.594,14.594,0,0,1,6.6-1.523h2.613a3.162,3.162,0,0,1,2.145.809A2.561,2.561,0,0,1,19.758-13.652ZM41.32-1.875A1.747,1.747,0,0,1,40.5-.469,2.868,2.868,0,0,1,38.871,0H34.359a1.879,1.879,0,0,1-1.406-.492,5.226,5.226,0,0,1-.8-1.383L29.848-6.984a17.215,17.215,0,0,0,2-.668,19.346,19.346,0,0,0,1.91-.773q2.332-1.207,2.332-3.023,0-2.086-2.953-2.086H21.188l1.828-2.953h11.8q6.363,0,6.363,4.055,0,3.434-6.621,6l2.109,4.559ZM31.512-12.023,27.234,0H23.016l4.242-12.023Zm30.035,1.559a10.045,10.045,0,0,1-3.41,7.547A10.581,10.581,0,0,1,50.707.188a6.746,6.746,0,0,1-4.793-1.641,5.855,5.855,0,0,1-1.758-4.5,8.374,8.374,0,0,1,.691-3.164,11.112,11.112,0,0,1,1.734-2.906h5.156a9.21,9.21,0,0,0-2.191,3,8.471,8.471,0,0,0-.879,3.6,4.619,4.619,0,0,0,.586,2.4,2.234,2.234,0,0,0,2.027,1.172q2.2,0,3.984-2.848a9.337,9.337,0,0,0,1.582-4.9,3.835,3.835,0,0,0-1.078-2.9,4.115,4.115,0,0,0-2.977-1.037H41.227l1.793-2.953H53.8a9.615,9.615,0,0,1,5.332,1.336A5.241,5.241,0,0,1,61.547-10.465ZM89.73-16.488l-8.3,15A2.728,2.728,0,0,1,78.891,0H77.426V-10.418L71.66-1.441A3.039,3.039,0,0,1,68.93,0H67.266L68.5-13.535H63.047l1.8-2.953h5.18a2.965,2.965,0,0,1,1.629.434,2.067,2.067,0,0,1,.914,1.863,3.31,3.31,0,0,1-.023.387l-.844,7.945L77.3-14.73a4.747,4.747,0,0,1,1.066-1.289,3.033,3.033,0,0,1,1.793-.469H81.3V-6.094L86.93-16.488Z" transform="translate(-1.219 16.488)" fill="#fff"/>
</svg>
