<svg xmlns="http://www.w3.org/2000/svg" width="129.08" height="28.352" viewBox="0 0 129.08 28.352">
  <path id="logo-dark" d="M28.813-19.91A3.689,3.689,0,0,1,27.4-16.953a4.714,4.714,0,0,1-3.145,1.128,4.756,4.756,0,0,1-3.145-1.128,3.706,3.706,0,0,1-1.4-2.957,4.727,4.727,0,0,1,.171-1.2H19.5a9.652,9.652,0,0,0-7.383,3.726A11.53,11.53,0,0,0,8.955-9.622,6.054,6.054,0,0,0,11.57-4.307,10.169,10.169,0,0,0,17.5-2.734l3.179-8.887h6.375Q25.652-7.571,22.815.5q-1.35,3.811-6.46,3.811-.6,0-1.367-.034L16.56,0A23.277,23.277,0,0,1,6.87-1.726Q1.777-4.084,1.777-9.314a11.5,11.5,0,0,1,1.794-5.913,17.135,17.135,0,0,1,7.246-6.6,21.282,21.282,0,0,1,9.622-2.222H24.25a4.611,4.611,0,0,1,3.127,1.179A3.735,3.735,0,0,1,28.813-19.91ZM60.259-2.734a2.547,2.547,0,0,1-1.2,2.051A4.182,4.182,0,0,1,56.687,0h-6.58a2.74,2.74,0,0,1-2.051-.718,7.621,7.621,0,0,1-1.162-2.017l-3.367-7.451a25.105,25.105,0,0,0,2.922-.974,28.213,28.213,0,0,0,2.786-1.128q3.4-1.76,3.4-4.409,0-3.042-4.307-3.042H30.9l2.666-4.307H50.774q9.28,0,9.28,5.913,0,5.007-9.656,8.75l3.076,6.648Zm-14.3-14.8L39.717,0H33.564l6.187-17.534Zm43.8,2.273A14.649,14.649,0,0,1,84.783-4.255,15.431,15.431,0,0,1,73.948.273a9.838,9.838,0,0,1-6.99-2.393,8.539,8.539,0,0,1-2.563-6.562A12.211,12.211,0,0,1,65.4-13.3a16.2,16.2,0,0,1,2.529-4.238h7.52a13.432,13.432,0,0,0-3.2,4.375,12.353,12.353,0,0,0-1.282,5.247,6.736,6.736,0,0,0,.854,3.5A3.258,3.258,0,0,0,74.785-2.7Q78-2.7,80.6-6.853A13.617,13.617,0,0,0,82.9-14a5.593,5.593,0,0,0-1.572-4.23,6,6,0,0,0-4.341-1.512H60.122l2.615-4.307H78.459A14.022,14.022,0,0,1,86.235-22.1,7.643,7.643,0,0,1,89.756-15.261Zm41.1-8.784L118.757-2.17A3.978,3.978,0,0,1,115.049,0h-2.136V-15.193L104.5-2.1A4.431,4.431,0,0,1,100.522,0H98.1L99.89-19.739H91.943l2.632-4.307h7.554a4.324,4.324,0,0,1,2.375.632,3.015,3.015,0,0,1,1.333,2.717,4.827,4.827,0,0,1-.034.564l-1.23,11.587,8.152-12.937a6.923,6.923,0,0,1,1.555-1.88,4.424,4.424,0,0,1,2.615-.684h1.675V-8.887l8.2-15.159Z" transform="translate(-1.777 24.045)" fill="#002568"/>
</svg>
